<svg width="153" height="149" viewBox="0 0 153 149" fill="none" xmlns="http://www.w3.org/2000/svg">
<g id="Group 798">
<g id="Group 735">
<g id="Group 598">
<path id="Vector 314" d="M86.9628 54.1552C97.0948 40.561 109.327 58.6322 106.756 64.9361C105.567 67.8496 95.0296 89.9963 93.7847 95.0872C92.7363 99.3743 98.3783 138.522 98.3783 138.522L79.4926 140.1C79.4926 140.1 70.27 115.02 73.9574 92.7426C76.0967 79.8182 82.5598 60.0628 86.9628 54.1552Z" fill="#EC6C47"/>
<path id="Vector 268" d="M134.076 52.4428C124.187 40.6086 101.671 38.7989 88.6665 52.4426C80.8751 60.6169 90.3737 90.7589 79.4994 140.496L143.523 136.747C136.638 100.286 141.638 61.4924 134.076 52.4428Z" fill="#EC6C47"/>
<path id="Vector 315 (Stroke)" fill-rule="evenodd" clip-rule="evenodd" d="M85.2391 83.4917C85.1229 83.4915 85.0285 83.5855 85.0282 83.7018C85.0074 94.349 84.6601 107.41 82.4797 122.76C82.4633 122.875 82.5434 122.981 82.6585 122.998C82.7736 123.014 82.8802 122.934 82.8965 122.819C85.0808 107.442 85.4284 94.3593 85.4492 83.7026C85.4494 83.5864 85.3554 83.4919 85.2391 83.4917Z" fill="#D5482A"/>
<g id="Group 737">
<path id="Vector 288" d="M89.089 139.642L77.1488 123.866C77.1488 123.866 122.2 120.62 122.771 118.963C123.264 117.534 115.784 62.7008 115.784 55.7031C115.784 44.7449 126.539 45.9579 129.261 47.9324C146.435 60.3903 152.506 120.479 145.794 131.754C135.963 148.271 89.089 139.642 89.089 139.642Z" fill="#EC6C47"/>
<path id="Vector 301 (Stroke)" fill-rule="evenodd" clip-rule="evenodd" d="M118.635 82.651C118.519 82.665 118.437 82.7699 118.451 82.8853C118.827 85.98 119.213 89.1265 119.59 92.2069C120.242 97.5214 120.869 102.639 121.38 106.953C121.783 110.36 122.114 113.265 122.325 115.369C122.431 116.421 122.507 117.27 122.548 117.882C122.569 118.188 122.58 118.432 122.582 118.61C122.583 118.699 122.582 118.77 122.578 118.822C122.577 118.852 122.574 118.872 122.572 118.883C122.572 118.883 122.572 118.884 122.572 118.884C122.558 118.896 122.532 118.915 122.489 118.937C122.404 118.983 122.275 119.035 122.099 119.091C121.75 119.202 121.246 119.32 120.606 119.443C119.326 119.689 117.525 119.951 115.374 120.219C111.074 120.756 105.392 121.317 99.7255 121.827C94.0595 122.336 88.4111 122.793 84.1791 123.123C82.0631 123.288 80.3013 123.422 79.0685 123.514C78.4521 123.56 77.968 123.595 77.638 123.62C77.473 123.632 77.3465 123.641 77.2613 123.647L77.1342 123.656L77.1326 123.656C77.1323 123.656 77.1321 123.656 77.1473 123.866C77.1624 124.076 77.1626 124.076 77.1629 124.076L77.4191 124.058C77.4888 124.053 77.5722 124.046 77.6687 124.039C77.9989 124.015 78.4832 123.98 79.0998 123.934C80.333 123.842 82.0953 123.708 84.2118 123.543C88.4448 123.213 94.0949 122.755 99.7631 122.246C105.431 121.736 111.119 121.175 115.426 120.637C117.579 120.368 119.392 120.105 120.685 119.856C121.331 119.732 121.854 119.61 122.227 119.492C122.413 119.433 122.57 119.372 122.688 119.308C122.747 119.276 122.803 119.241 122.85 119.2C122.895 119.16 122.943 119.105 122.969 119.032C122.987 118.977 122.995 118.909 122.999 118.849C123.003 118.782 123.004 118.7 123.003 118.605C123.001 118.415 122.989 118.163 122.968 117.854C122.927 117.235 122.85 116.38 122.744 115.326C122.532 113.219 122.201 110.311 121.798 106.904C121.287 102.589 120.66 97.4694 120.008 92.1542C119.63 89.074 119.245 85.928 118.869 82.8346C118.855 82.7191 118.75 82.637 118.635 82.651ZM77.1473 123.866L77.1624 124.076C77.0464 124.085 76.9457 123.997 76.9373 123.881C76.9289 123.766 77.0162 123.665 77.1321 123.656L77.1473 123.866ZM146.165 88.3357C146.051 88.355 145.973 88.4635 145.993 88.5782C147.549 97.851 148.312 107.187 148.254 114.927C148.225 118.798 147.99 122.266 147.548 125.126C147.105 127.992 146.457 130.227 145.612 131.647C143.196 135.705 138.488 138.243 132.732 139.751C126.98 141.258 120.22 141.728 113.755 141.682C107.292 141.635 101.134 141.074 96.5905 140.524C94.3192 140.248 92.4522 139.976 91.1534 139.773C90.504 139.671 89.9966 139.587 89.6518 139.528C89.4794 139.498 89.3477 139.475 89.2591 139.459C89.2148 139.451 89.1814 139.445 89.159 139.441L89.1338 139.437L89.1276 139.436L89.1261 139.435C89.1257 139.435 89.1256 139.435 89.0875 139.642C89.0494 139.849 89.0496 139.849 89.05 139.849L89.0582 139.851L89.084 139.856C89.1068 139.86 89.1407 139.866 89.1854 139.874C89.2748 139.89 89.4075 139.913 89.5808 139.943C89.9274 140.002 90.4367 140.087 91.0882 140.189C92.3912 140.393 94.2631 140.666 96.5398 140.941C101.093 141.493 107.268 142.056 113.752 142.103C120.234 142.149 127.036 141.679 132.838 140.158C138.636 138.639 143.474 136.062 145.974 131.862C146.861 130.372 147.519 128.072 147.964 125.19C148.41 122.304 148.645 118.814 148.675 114.93C148.733 107.162 147.968 97.8024 146.408 88.5085C146.389 88.3938 146.28 88.3165 146.165 88.3357ZM88.8805 139.604C88.8594 139.719 88.9351 139.828 89.0494 139.849L89.0875 139.642L89.1256 139.435C89.0113 139.414 88.9015 139.49 88.8805 139.604Z" fill="#D5482A"/>
<path id="Vector 300" d="M77.1493 123.867C81.4478 126.62 88.83 134.654 89.0879 139.643C85.5417 138.182 79.2126 131.958 77.1493 123.867Z" fill="#3E4981"/>
<path id="Vector 289" d="M60.7345 126.548C64.8754 123.411 79.495 125.785 79.495 125.785C82.6928 128.343 87.383 133.674 88.6621 137.511C88.6621 137.511 81.8401 135.379 75.018 138.15C72.396 139.215 74.2024 136.194 75.018 135.379C77.7895 132.607 48.7967 135.592 60.7345 126.548Z" fill="#F1B09B"/>
</g>
<g id="Group 736">
<path id="Vector 295" d="M115.801 15.0237C112.306 13.232 105.259 8.41952 105.025 3.5034C105.807 5.73479 109.055 11.1628 115.801 15.0237Z" fill="#444779"/>
<path id="Vector 297" d="M117.212 17.1312C114.079 14.7634 107.967 8.80722 108.585 3.92452C108.97 6.25723 111.233 12.1644 117.212 17.1312Z" fill="#444779"/>
</g>
<path id="Vector 671" d="M124.454 15.542C136.027 22.2795 125.323 32.6733 119.53 37.1829C113.049 32.0263 122.784 27.1916 121.004 26.6577C119.224 26.1238 115.934 27.6455 105.733 22.1764C104.555 21.545 103.638 20.861 102.94 20.1441C98.8014 15.8931 101.759 7.75865 104.49 5.2749C105.822 9.06653 109.736 11.7352 113.189 12.98C111.947 12.0279 109.262 8.6552 111.45 5.2749C114.681 11.2401 119.403 12.6019 124.454 15.542Z" fill="#05185A"/>
<path id="Vector 672" d="M103.107 51.4063C105.278 53.6628 114.401 55.1939 120.838 51.4063C121.727 49.6327 117.632 33.2817 120.495 31.2882C125.817 27.5835 120.158 23.7111 117.001 25.0909C115.106 25.9193 113.422 24.5527 112.159 23.5002C106.939 18.7851 104.018 16.9663 103.107 18.8687C95.9511 33.8139 101.148 38.451 102.796 40.1355C103.418 40.7716 103.579 42.8787 103.52 45.3267C103.454 48.0649 101.544 49.7809 103.107 51.4063Z" fill="#F1B09B"/>
<path id="Vector 672 (Stroke)" fill-rule="evenodd" clip-rule="evenodd" d="M119.68 24.7524C118.755 24.5169 117.76 24.5302 116.918 24.8982C116.039 25.282 115.209 25.162 114.431 24.8094C113.646 24.4539 112.931 23.8693 112.298 23.3414C109.69 20.986 107.639 19.3372 106.118 18.5178C105.359 18.1094 104.704 17.8905 104.162 17.9167C103.886 17.93 103.638 18.0069 103.424 18.1554C103.211 18.3034 103.044 18.5143 102.918 18.778C99.3288 26.2735 98.8217 31.2162 99.4437 34.5141C100.033 37.6391 101.632 39.2571 102.503 40.1381C102.553 40.1887 102.601 40.2369 102.646 40.2829C102.767 40.4072 102.881 40.6214 102.979 40.9338C103.076 41.2424 103.15 41.6283 103.205 42.0772C103.314 42.9749 103.34 44.1022 103.31 45.3218C103.285 46.3501 102.995 47.2195 102.726 48.025C102.647 48.2627 102.57 48.4948 102.501 48.7239C102.354 49.2175 102.25 49.7016 102.294 50.1751C102.338 50.6575 102.534 51.1135 102.956 51.5524C103.535 52.1538 104.551 52.686 105.825 53.0916C107.105 53.4993 108.667 53.7866 110.361 53.8832C113.746 54.0762 117.68 53.5087 120.945 51.5879L120.998 51.5563L121.026 51.5008C121.1 51.3537 121.139 51.1536 121.159 50.929C121.18 50.6993 121.182 50.4221 121.172 50.1074C121.15 49.4775 121.073 48.6785 120.966 47.7704C120.859 46.8616 120.72 45.8382 120.574 44.759L120.574 44.7555C120.428 43.6766 120.274 42.5413 120.136 41.4045C119.859 39.1262 119.645 36.8524 119.677 35.0272C119.693 34.114 119.771 33.3232 119.929 32.7045C120.089 32.0794 120.321 31.6667 120.616 31.4611C121.972 30.5174 122.663 29.5392 122.845 28.6035C123.029 27.6617 122.69 26.8084 122.084 26.1415C121.48 25.4772 120.605 24.9878 119.68 24.7524ZM122.432 28.5227C122.278 29.3119 121.681 30.207 120.376 31.1156C119.955 31.4084 119.689 31.9427 119.521 32.6004C119.352 33.2643 119.273 34.0919 119.256 35.0197C119.223 36.8763 119.44 39.1749 119.718 41.4553C119.856 42.5949 120.01 43.7326 120.156 44.8107L120.157 44.8154C120.303 45.8956 120.441 46.9152 120.548 47.8198C120.655 48.7252 120.73 49.5101 120.751 50.1218C120.761 50.4277 120.758 50.6857 120.74 50.8913C120.725 51.0598 120.7 51.1802 120.672 51.2598C117.511 53.0988 113.693 53.6515 110.385 53.4629C108.722 53.3681 107.195 53.0862 105.952 52.6905C104.704 52.2928 103.766 51.7873 103.259 51.2605C102.9 50.8867 102.748 50.5187 102.713 50.1366C102.677 49.7457 102.761 49.3249 102.905 48.8441C102.966 48.6372 103.039 48.4199 103.115 48.1918C103.387 47.3792 103.705 46.4302 103.731 45.332C103.761 44.1036 103.735 42.9533 103.623 42.0265C103.567 41.5631 103.488 41.1499 103.381 40.8081C103.275 40.47 103.136 40.1822 102.947 39.9885C102.902 39.9426 102.854 39.8946 102.805 39.8444C101.946 38.9753 100.423 37.4339 99.8574 34.436C99.258 31.2579 99.7305 26.4095 103.297 18.9598C103.399 18.7478 103.523 18.5994 103.664 18.5012C103.805 18.4035 103.975 18.3472 104.182 18.3372C104.607 18.3167 105.179 18.4905 105.918 18.8884C107.39 19.6812 109.408 21.2984 112.019 23.6566L112.022 23.6595L112.025 23.6621C112.654 24.186 113.411 24.8096 114.257 25.1928C115.11 25.5795 116.069 25.7286 117.086 25.284C117.822 24.9622 118.718 24.942 119.576 25.1603C120.433 25.3786 121.232 25.8302 121.772 26.4246C122.31 27.0164 122.585 27.7396 122.432 28.5227Z" fill="#EC8E67"/>
<path id="Vector 670" d="M116.367 40.1356C114.108 42.2243 106.904 40.9148 102.793 40.1355C103.415 40.7716 103.577 42.8787 103.518 45.3267C107.602 45.0447 114.623 43.8299 116.367 40.1356Z" fill="#EC8E67"/>
</g>
</g>
<g id="Group 794">
<path id="Vector 605" d="M25.8474 142.012L0.587891 97.8081H59.1887C59.7889 97.8081 60.3437 98.1276 60.645 98.6467L85.2073 140.96L25.8474 142.012Z" fill="#1C43AE"/>
<path id="Vector 606" d="M60.645 98.6463L85.2073 140.959H101.1C101.855 140.959 102.468 140.347 102.468 139.591C102.468 138.835 101.855 138.223 101.1 138.223H86.0493L62.116 96.1333C61.8166 95.6069 61.2577 95.2817 60.6521 95.2817H6.23351C5.98126 95.2817 5.73222 95.3384 5.50481 95.4476L0.587891 97.8077H59.1887C59.7889 97.8077 60.3437 98.1272 60.645 98.6463Z" fill="#0F2E9A"/>
</g>
</g>
</svg>
