<svg width="130" height="145" viewBox="0 0 130 145" fill="none" xmlns="http://www.w3.org/2000/svg">
<g id="Group 533">
<g id="Group 531">
<path id="Vector 183" d="M59.9623 38.6332C62.9777 31.7409 56.0325 22.1881 55.0652 17.2305C20.8214 8.23425 33.1186 36.094 40.7364 48.7903L50.5307 49.8786L51.0011 44.6348C51.0011 43.168 57.9309 43.2764 59.9623 38.6332Z" fill="#F1B09B"/>
<path id="Vector 189 (Stroke)" fill-rule="evenodd" clip-rule="evenodd" d="M55.0299 17.0637C55.1217 17.0458 55.2107 17.1057 55.2286 17.1976C55.4589 18.3777 56.0364 19.8321 56.7462 21.4704C56.9438 21.9264 57.1515 22.3964 57.3642 22.8777C57.9126 24.1186 58.4944 25.435 59.0222 26.7825C59.0563 26.8697 59.0134 26.968 58.9263 27.0021C58.8391 27.0362 58.7408 26.9933 58.7067 26.9061C58.1817 25.5658 57.6046 24.2599 57.0572 23.0213C56.8437 22.5384 56.6348 22.0657 56.4353 21.6051C55.7268 19.9699 55.1344 18.4837 54.8961 17.2624C54.8781 17.1706 54.9381 17.0816 55.0299 17.0637ZM60.308 31.3944C60.3995 31.3749 60.4896 31.4332 60.5091 31.5247C61.0405 34.0132 61.0836 36.4861 60.1147 38.7006C59.3996 40.3351 58.0974 41.391 56.7117 42.1307C55.5779 42.7359 54.3742 43.1359 53.38 43.4664C53.1622 43.5388 52.9546 43.6078 52.7598 43.675C52.6714 43.7054 52.5749 43.6585 52.5445 43.57C52.514 43.4815 52.561 43.3851 52.6494 43.3546C52.85 43.2855 53.0619 43.215 53.2824 43.1416C54.2763 42.8111 55.4464 42.422 56.5521 41.8318C57.8995 41.1125 59.1306 40.1045 59.8043 38.5648C60.7336 36.4406 60.7013 34.0476 60.1777 31.5955C60.1582 31.504 60.2165 31.414 60.308 31.3944Z" fill="#EC8E65"/>
<path id="Vector 185" d="M51.0012 44.6348L50.5308 49.8785L47.3414 49.5241C47.0415 49.528 46.7165 49.489 46.3594 49.415L47.3414 49.5241C48.9316 49.5034 49.813 48.2743 51.0012 44.6348Z" fill="#EC8E65"/>
<path id="Ellipse 11" d="M64.8853 96.2326C64.8853 122.807 55.4036 144.349 43.7073 144.349C32.011 144.349 22.5293 122.807 22.5293 96.2326C22.5293 69.6587 32.011 48.1162 43.7073 48.1162C75.559 48.1162 64.8853 69.6587 64.8853 96.2326Z" fill="#F6BC33"/>
<path id="Vector 181" d="M64.8854 103.517L58.4473 87.7607L63.6994 112.158L64.8854 103.517Z" fill="#D89B0E"/>
<g id="Group 548">
<g id="Group 537">
<path id="Vector 188" d="M111.005 31.2314L110.084 32.6102L125.218 34.6676L121.173 27.3849L120.042 32.6955L111.349 31.0864C111.215 31.0618 111.08 31.1188 111.005 31.2314Z" fill="#F0E898"/>
<path id="Vector 187" d="M108.692 32.2995L107.057 35.4009L124.511 34.3031L109.039 32.122C108.898 32.102 108.759 32.1731 108.692 32.2995Z" fill="#D5482A"/>
<path id="Vector 184" d="M97.3148 58.3774L107.239 35.0456L124.487 34.1936L113.516 59.9047L99.0476 60.8456C97.7292 60.9289 96.617 59.6431 97.3148 58.3774Z" fill="#EC6C47"/>
<path id="Vector 190" d="M113.43 60.0276L98.962 60.9684C97.6435 61.0517 96.703 59.712 97.2291 58.5003C97.4184 59.2073 99.2625 60.2099 105.124 58.564C112.451 56.5067 112.262 56.6025 115.137 50.6044C117.437 45.8059 121.208 40.2396 122.806 38.0562L113.43 60.0276Z" fill="#EC8E67"/>
<path id="Vector 185_2" d="M124.485 34.1946L113.513 59.9057C114.388 60.5457 115.631 60.2056 116.058 59.2095L126.9 33.9196L124.485 34.1946Z" fill="#B83013"/>
<path id="Vector 186" d="M126.9 33.9193L121.868 27.3568C121.596 27.0017 121.061 27.0033 120.79 27.3599L119.577 28.9616L124.486 34.1943L126.9 33.9193Z" fill="#D5482A"/>
<path id="Vector 189" d="M126.9 33.9193L121.868 27.3568C121.596 27.0017 121.061 27.0033 120.79 27.3599L119.577 28.9616C120.036 28.7611 121.103 28.3891 121.21 28.5547C121.318 28.7203 126.9 33.9193 126.9 33.9193Z" fill="#EC6C47"/>
</g>
<path id="Vector 172" d="M116.009 70.9183L100.229 62.9381L81.1844 87.7858C77.9801 78.8982 70.0847 58.9834 64.1351 53.3251C56.89 46.4347 41.9786 48.5714 49.8685 69.1063C52.4154 76.3207 56.1653 85.8795 59.4193 94.6774C69.2138 121.16 89.7091 112.635 95.1503 108.282C106.033 99.5756 116.009 70.9183 116.009 70.9183Z" fill="#F6BC33"/>
<path id="Ellipse 10" d="M100.228 62.9369C107.846 69.104 114.013 72.5496 116.008 70.9174C118.003 69.2852 103.781 63.8594 100.228 62.9369Z" fill="#D89B0E"/>
<path id="Vector 162" d="M103.128 50.2422C101.133 52.4188 104.761 54.6311 104.761 58.7669C104.761 59.634 103.136 63.0133 102.766 64.2082C105.151 65.7197 110.248 69.1053 113.694 69.1053C114.555 67.9748 115.615 66.8041 116.913 65.6238C124.394 58.823 123.992 52.9982 123.63 47.763L123.624 47.6675C123.261 42.4076 121.629 43.4958 118.001 49.1185C114.585 54.4139 110.202 56.2743 109.114 55.285C107.119 53.4712 105.123 48.0657 103.128 50.2422Z" fill="#F1B09B"/>
<path id="Vector 184_2" d="M113.696 69.105C110.25 69.105 105.153 65.7193 102.768 64.2078C102.92 63.7153 103.312 62.7568 103.312 62.7568C103.312 62.7568 112.38 68.2546 114.376 68.2546C114.136 68.5402 113.91 68.8239 113.696 69.105Z" fill="#EFF0EA"/>
<path id="Vector 188 (Stroke)" fill-rule="evenodd" clip-rule="evenodd" d="M123.618 47.5832C123.665 47.58 123.705 47.6152 123.708 47.6619C123.711 47.6954 123.713 47.7289 123.715 47.7625C123.938 50.9917 124.178 54.4655 122.56 58.2562C122.542 58.2992 122.492 58.3192 122.449 58.3009C122.406 58.2825 122.386 58.2327 122.405 58.1897C124.006 54.4367 123.769 50.998 123.546 47.7639L123.539 47.6736C123.536 47.6269 123.571 47.5864 123.618 47.5832ZM120.293 61.9643C120.331 61.9925 120.338 62.0457 120.31 62.083C119.423 63.2547 118.325 64.4551 116.97 65.6867C115.675 66.8637 114.619 68.0306 113.761 69.1569C113.733 69.1941 113.68 69.2013 113.643 69.173C113.606 69.1446 113.598 69.0915 113.627 69.0542C114.491 67.9194 115.554 66.745 116.856 65.5613C118.204 64.336 119.294 63.1431 120.175 61.9807C120.203 61.9434 120.256 61.9361 120.293 61.9643Z" fill="#3F487F"/>
<path id="Vector 187 (Stroke)" fill-rule="evenodd" clip-rule="evenodd" d="M100.332 62.9855C100.406 63.0427 100.42 63.1491 100.363 63.2232L81.3182 87.8909C81.2804 87.9399 81.2189 87.9643 81.1578 87.9548C81.0967 87.9452 81.0456 87.903 81.0247 87.8448C79.3331 83.153 76.3336 75.3868 73.0043 68.2712C72.9646 68.1865 73.0012 68.0856 73.0859 68.046C73.1707 68.0063 73.2715 68.0429 73.3112 68.1276C76.5786 75.1108 79.5275 82.7164 81.2385 87.4396L100.095 63.0161C100.152 62.942 100.258 62.9283 100.332 62.9855Z" fill="#D89B0E"/>
<path id="Vector 186 (Stroke)" fill-rule="evenodd" clip-rule="evenodd" d="M116.064 70.7575C116.152 70.7883 116.199 70.8848 116.168 70.9732L116.008 70.9175L115.848 70.8618C115.879 70.7734 115.976 70.7267 116.064 70.7575ZM116.008 70.9175C115.848 70.8618 115.848 70.8616 115.848 70.8618L115.841 70.8823L115.819 70.9437C115.8 70.9979 115.772 71.0787 115.734 71.1845C115.658 71.3961 115.546 71.7077 115.399 72.1075C115.106 72.9071 114.674 74.0594 114.122 75.4695C113.017 78.2898 111.432 82.1406 109.506 86.2628C107.581 90.3853 105.317 94.7768 102.857 98.6797C100.395 102.585 97.7428 105.99 95.0441 108.149C94.971 108.207 94.9591 108.314 95.0176 108.387C95.0761 108.46 95.1827 108.472 95.2557 108.413C97.9983 106.219 100.674 102.777 103.143 98.8604C105.614 94.9414 107.885 90.5361 109.814 86.4061C111.743 82.2757 113.331 78.418 114.437 75.593C114.99 74.1805 115.423 73.0259 115.717 72.2243C115.865 71.8235 115.977 71.5109 116.053 71.2985C116.091 71.1922 116.12 71.111 116.139 71.0563L116.161 70.9943L116.168 70.9736C116.168 70.9733 116.168 70.9732 116.008 70.9175Z" fill="#D89B0E"/>
</g>
</g>
<path id="Vector 208" d="M39.2097 69.3009C33.0433 72.0215 35.9445 81.2717 25.6061 83.811C24.7908 84.0112 23.9771 84.1798 23.168 84.3155L43.1999 48.2588C48.0973 53.5162 45.3761 66.5802 39.2097 69.3009Z" fill="#3E4885"/>
<path id="Vector 207" d="M43.2005 48.2591C45.9573 39.1188 42.0044 33.011 40.1904 31.1971C40.1904 31.1971 37.2884 30.2902 37.2884 27.3882C37.2884 22.4547 43.2738 21.2214 45.6317 25.4035C46.5388 27.0123 48.5611 27.3754 49.7297 27.0406C53.052 26.0886 55.4623 25.1015 57.4214 23.9421L57.0586 23.0352L49.4408 25.756C48.1106 23.519 44.3982 19.4441 40.1904 21.0402C34.9307 23.0353 29.5237 38.84 43.2005 48.2591Z" fill="#EC8E65"/>
<path id="Vector 192" d="M40.6577 8.05764C56.9957 2.03686 61.5738 13.2364 61.7624 18.6438C57.6855 1.82337 40.9383 7.95492 40.6593 8.05705L40.6577 8.05764Z" fill="#3052A9"/>
<path id="Vector 203" d="M61.8943 16.7317C61.1785 11.3687 52.6358 0.826475 38.0143 7.86081C38.212 7.76568 56.1813 0.353658 61.8943 16.7317Z" fill="#3052A9"/>
<path id="Vector 182" d="M42.8377 47.8955C45.5945 38.7553 41.6416 32.6475 39.8276 30.8335C39.8276 30.8335 36.9256 29.9267 36.9256 27.0246C36.9256 22.0912 42.911 20.8579 45.2689 25.0399C46.176 26.6487 48.1983 27.0119 49.3669 26.677C74.1077 19.5878 58.328 5.07832 42.5483 7.97881C25.529 11.1072 21.4123 50.2559 12.9103 50.2559C7.10628 50.2559 -2.79557 63.4814 1.01333 73.457C4.82222 83.4327 14.9055 85.987 25.2439 83.4477C35.5823 80.9084 32.681 71.6583 38.8475 68.9376C45.0139 66.217 47.7351 53.153 42.8377 47.8955Z" fill="#05185A"/>
<path id="Vector 204" d="M13.3567 79.6815C18.5304 81.2651 31.6731 77.8909 31.3696 61.6681C31.3737 61.8875 30.6259 81.3111 13.3567 79.6815Z" fill="#312E63"/>
<path id="Vector 205" d="M11.3589 77.4377C15.7864 79.3411 27.7502 77.627 29.0533 63.2334C29.0357 63.4281 26.4916 80.5538 11.3589 77.4377Z" fill="#312E63"/>
<path id="Vector 206" d="M9.02294 76.4221C12.9943 78.1294 23.7257 76.5918 24.8945 63.6811C24.8787 63.8557 22.5967 79.2172 9.02294 76.4221Z" fill="#312E63"/>
<path id="Vector 191" d="M35.8369 68.3789C45.0871 63.3003 42.971 51.8132 41.2782 48.6089C44.1802 61.0875 38.618 66.6256 35.1114 68.0161C29.5976 82.236 20.1177 83.3726 16.4297 81.9821C27.4573 86.19 33.0558 75.5734 35.8369 68.3789Z" fill="#312E63"/>
<path id="Vector 202" d="M34.7514 67.2904C43.1672 61.0511 41.5228 52.3571 39.6485 48.79C43.131 59.3824 37.7141 64.993 34.3888 66.7463C28.2946 79.6602 20.1204 82.1027 16.9766 81.4377C25.1387 83.1643 32.2123 73.2758 34.7514 67.2904Z" fill="#312E63"/>
</g>
</svg>
